PathFileType	4	(X/Y/Z)	/Users/itak/Documents/Research/Walk-IL/dataset/trc/00376_00012.trc
DataRate	CameraRate	NumFrames	NumMarkers	Units	OrigDataRate	OrigDataStartFrame	OrigNumFrames
100.000000	100.000000	4	56	mm	100.000000	199	398
Frame#	Time	RPSI			LPSI			L3			STRN			T10			C7			CLAV			RBAK			LBAK			LSHO			LUPA			LAEL			LAOL			LWTS			LWPS			LFRA			LIFD			LHPS			LHTS			RSHO			RUPA			RAEL			RAOL			RWPS			RFRA			RIFD			RHTS			RHPS			RBHD			LFHD			RFHD			LBHD			LHIP			RHIP			RASI			LASI			LKNE			LTHI			LANK			LTIP			LTOE			LMT1			LMT5			LHEE			RKNE			RTHI			RANK			RTIP			RTOE			RMT1			RMT5			RHEE			RWTS			*53			*54			*55			
		X1	Y1	Z1	X2	Y2	Z2	X3	Y3	Z3	X4	Y4	Z4	X5	Y5	Z5	X6	Y6	Z6	X7	Y7	Z7	X8	Y8	Z8	X9	Y9	Z9	X10	Y10	Z10	X11	Y11	Z11	X12	Y12	Z12	X13	Y13	Z13	X14	Y14	Z14	X15	Y15	Z15	X16	Y16	Z16	X17	Y17	Z17	X18	Y18	Z18	X19	Y19	Z19	X20	Y20	Z20	X21	Y21	Z21	X22	Y22	Z22	X23	Y23	Z23	X24	Y24	Z24	X25	Y25	Z25	X26	Y26	Z26	X27	Y27	Z27	X28	Y28	Z28	X29	Y29	Z29	X30	Y30	Z30	X31	Y31	Z31	X32	Y32	Z32	X33	Y33	Z33	X34	Y34	Z34	X35	Y35	Z35	X36	Y36	Z36	X37	Y37	Z37	X38	Y38	Z38	X39	Y39	Z39	X40	Y40	Z40	X41	Y41	Z41	X42	Y42	Z42	X43	Y43	Z43	X44	Y44	Z44	X45	Y45	Z45	X46	Y46	Z46	X47	Y47	Z47	X48	Y48	Z48	X49	Y49	Z49	X50	Y50	Z50	X51	Y51	Z51	X52	Y52	Z52	X53	Y53	Z53	X54	Y54	Z54	X55	Y55	Z55	X56	Y56	Z56	

200	1.99	234.9935760498047	942.06787109375	137.3823394775391	238.0660247802734	942.1843872070312	3.219080924987793	234.5487365722656	1016.785339355469	83.73475646972656	455.4037780761719	1184.798583984375	94.13997650146484	213.3811798095703	1117.795654296875	92.79337310791016	230.2543182373047	1368.83935546875	85.70084381103516	391.5674438476562	1299.626586914062	91.24053192138672	199.3497161865234	1220.419677734375	152.5158538818359	215.6251831054688	1329.471069335938	-15.35120868682861	300.4635314941406	1349.570434570312	-68.4527587890625	262.5675048828125	1233.808837890625	-131.0465087890625	251.7235870361328	1038.637817382812	-154.2460021972656	211.6085357666016	1020.701110839844	-81.31939697265625	324.0383605957031	812.3348388671875	-126.2107009887695	261.7873840332031	807.6302490234375	-180.5305023193359	253.3309783935547	933.2606201171875	-167.0640716552734	290.1726989746094	634.3046264648438	-128.2472534179688	262.8531188964844	720.6515502929688	-173.8974151611328	319.0136413574219	711.3030395507812	-146.0304565429688	288.8346862792969	1353.164306640625	243.2471618652344	278.007568359375	1286.869995117188	302.2437438964844	300.6419677734375	1026.086303710938	341.8858642578125	291.8064270019531	1013.127075195312	247.5717620849609	429.0954895019531	825.9263916015625	387.8754577636719	335.4703369140625	966.8975219726562	361.7131958007812	521.1088256835938	683.4578857421875	344.9049987792969	517.1357421875	754.1820068359375	361.5696411132812	457.4124145507812	742.12939453125	391.2353820800781	262.20458984375	1558.648071289062	170.5642242431641	398.69287109375	1567.678344726562	25.26572799682617	392.6825561523438	1575.09619140625	147.6827697753906	251.8638153076172	1546.447509765625	8.688406944274902	336.837158203125	950.068359375	-101.143798828125	307.1775817871094	911.6090087890625	257.1256103515625	442.455810546875	927.6453857421875	217.3948059082031	446.0187683105469	949.4114379882812	-44.83181381225586	524.6553344726562	476.6770935058594	-32.94559478759766	474.4664001464844	608.787841796875	-65.24538421630859	470.3771667480469	38.10680770874023	6.532504081726074	508.5379333496094	237.7906341552734	-22.02762794494629	675.71923828125	37.15612411499023	102.9149932861328	590.3943481445312	38.16336441040039	119.6361465454102	597.040771484375	36.23737335205078	13.83332824707031	425.3394165039062	36.68341064453125	55.68217468261719	292.2566223144531	435.4001159667969	226.2097625732422	366.766357421875	682.301513671875	248.1293487548828	-54.6404914855957	156.1335296630859	195.6258087158203	216.3214416503906	330.421875	216.9361419677734	21.20360374450684	31.03737831115723	93.2618408203125	-11.16521549224854	90.12959289550781	83.97487640380859	-29.9607048034668	71.93694305419922	181.170654296875	-95.18824768066406	223.8652801513672	150.4130554199219	474.5361328125	848.6953735351562	334.103271484375	nan	nan	nan	nan	nan	nan	nan	nan	nan	
201	2	245.9697723388672	942.2150268554688	136.4461212158203	250.0489044189453	943.8977661132812	2.497271299362183	245.579833984375	1018.39794921875	82.46273803710938	467.1088562011719	1186.154174804688	95.16306304931641	225.7789916992188	1118.988159179688	91.68076324462891	241.8043060302734	1370.38671875	85.10771179199219	403.3659362792969	1301.044677734375	91.88327026367188	210.5810241699219	1221.768676757812	151.3231658935547	228.1063690185547	1331.163452148438	-16.21024894714355	313.4951477050781	1351.407348632812	-68.34381103515625	277.5816345214844	1235.5498046875	-132.1636657714844	269.8476867675781	1040.284423828125	-157.1016998291016	227.9790496826172	1021.509826660156	-85.54421234130859	347.6490173339844	816.2202758789062	-128.8696594238281	286.50830078125	809.7605590820312	-184.2496185302734	274.3282775878906	935.09228515625	-170.5087127685547	320.3231811523438	637.1862182617188	-133.0536956787109	290.4990234375	722.8944702148438	-178.2125091552734	347.0892639160156	716.105224609375	-149.9705047607422	299.4721069335938	1354.433715820312	243.0851593017578	288.1489868164062	1288.0390625	301.7812194824219	309.4152221679688	1027.017456054688	340.4410095214844	300.0693969726562	1014.695251464844	246.3499908447266	430.9701538085938	822.4108276367188	385.582275390625	342.5906066894531	966.9427490234375	360.1396484375	514.0320434570312	675.1724853515625	339.8564453125	514.438232421875	745.8112182617188	357.2008361816406	454.4649963378906	736.9697875976562	387.6365356445312	273.2213439941406	1560.003051757812	170.7548370361328	409.8277587890625	1569.693115234375	25.42375946044922	403.6891174316406	1577.02197265625	147.9080505371094	263.0161437988281	1547.91455078125	8.858597755432129	349.1257629394531	952.29248046875	-101.8678207397461	317.8656005859375	911.53955078125	256.2394104003906	453.5299072265625	928.6531982421875	217.3744506835938	457.6673889160156	950.7504272460938	-44.65390014648438	529.7545166015625	476.0404663085938	-34.09418106079102	481.7411193847656	609.124755859375	-66.17533111572266	470.4312133789062	38.14349746704102	6.556770324707031	510.7361450195312	237.3844757080078	-22.52828788757324	675.8424682617188	37.10226440429688	102.9899826049805	590.4268798828125	38.15085983276367	119.6409378051758	597.0681762695312	36.23542785644531	13.786789894104	425.2343139648438	36.83901596069336	55.65489959716797	316.5511779785156	434.5563354492188	227.4448852539062	382.5380554199219	682.9610595703125	248.1592559814453	-35.18650436401367	163.0805053710938	197.2340850830078	240.0629425048828	330.8377380371094	218.1566467285156	39.47862243652344	31.83674240112305	99.36123657226562	8.562422752380371	94.30182647705078	87.50732421875	-12.51524066925049	78.18778228759766	184.8732757568359	-73.90273284912109	230.9143829345703	150.665283203125	476.8530578613281	843.1264038085938	331.417236328125	nan	nan	nan	nan	nan	nan	nan	nan	nan	
202	2.01	256.6317138671875	942.4437255859375	135.6776428222656	261.6008911132812	945.6200561523438	1.929932117462158	256.3738098144531	1020.014587402344	81.22647857666016	478.6492919921875	1187.39501953125	96.34324645996094	237.7378692626953	1120.293334960938	90.54022979736328	253.2799072265625	1371.957763671875	84.54003143310547	415.0467529296875	1302.331298828125	92.64487457275391	221.6412658691406	1223.154418945312	150.0695037841797	240.5266876220703	1332.903564453125	-17.07221412658691	326.5052795410156	1353.201416015625	-68.15608215332031	292.5672302246094	1237.307983398438	-133.2532653808594	287.9829406738281	1042.01513671875	-160.0185241699219	244.1057586669922	1022.39697265625	-90.00344848632812	371.1784973144531	820.3926391601562	-131.3934478759766	311.368896484375	812.260986328125	-187.9576568603516	295.4384155273438	937.157958984375	-174.0054321289062	350.8800048828125	640.6852416992188	-137.9356994628906	318.3953552246094	725.6390380859375	-182.5381774902344	375.2654724121094	721.3779907226562	-153.8264617919922	309.9400024414062	1355.599365234375	242.9778442382812	298.0408935546875	1289.069702148438	301.3199768066406	317.6888122558594	1027.7919921875	339.0275268554688	307.9115600585938	1016.116943359375	245.1675567626953	432.6217346191406	819.26806640625	383.3353271484375	349.2876281738281	966.9281616210938	358.5805969238281	506.5929565429688	667.84619140625	334.8665771484375	511.345947265625	738.1781616210938	352.866455078125	451.3377990722656	732.4595947265625	384.1529235839844	284.2054138183594	1561.345703125	170.9871520996094	420.9432373046875	1571.669921875	25.64334106445312	414.6474914550781	1578.889526367188	148.2133483886719	274.1431579589844	1549.37158203125	9.072344779968262	361.0418701171875	954.4434814453125	-102.5366287231445	328.3927612304688	911.4689331054688	255.4943542480469	464.3898010253906	929.610107421875	217.357177734375	468.9668884277344	951.9483032226562	-44.54052734375	534.36962890625	475.3782043457031	-35.31178665161133	488.5507507324219	609.4200439453125	-67.10855865478516	470.4671020507812	38.17819595336914	6.57914924621582	512.6764526367188	236.9685211181641	-23.05159378051758	675.9459228515625	37.0439338684082	103.0417022705078	590.4635620117188	38.12749862670898	119.6368408203125	597.0875244140625	36.21905899047852	13.73509120941162	425.1348876953125	36.99238967895508	55.64387130737305	340.9915161132812	434.1783142089844	228.5963592529297	398.0825500488281	683.8603515625	248.3247222900391	-14.34659767150879	169.4083099365234	198.5362243652344	264.1859436035156	331.6226501464844	219.2139739990234	60.77421951293945	33.10912704467773	106.1700286865234	30.66131973266602	97.76186370849609	91.36368560791016	7.518886089324951	84.31317138671875	188.9079132080078	-51.83160781860352	236.6070709228516	150.2148742675781	478.7745971679688	837.9590454101562	328.7345886230469	nan	nan	nan	nan	nan	nan	nan	nan	nan	
203	2.02	267.0692443847656	942.8390502929688	135.1363067626953	272.7150268554688	947.3595581054688	1.5604327917099	266.9618835449219	1021.620483398438	80.11388397216797	490.0265808105469	1188.586791992188	97.60276031494141	249.2858734130859	1121.7138671875	89.43662261962891	264.6773376464844	1373.554443359375	84.0189208984375	426.5918884277344	1303.541137695312	93.48176574707031	232.5685424804688	1224.593505859375	148.8079528808594	252.8402252197266	1334.6884765625	-17.90151786804199	339.4120788574219	1354.978271484375	-67.89122772216797	307.418212890625	1239.119018554688	-134.2903594970703	306.0619201660156	1043.862060546875	-162.9395141601562	259.9333801269531	1023.3994140625	-94.61972808837891	394.5682373046875	824.90185546875	-133.7525024414062	336.3287658691406	815.21240234375	-191.6365814208984	316.5863952636719	939.511474609375	-177.4931945800781	381.7000732421875	644.877197265625	-142.8446807861328	346.4736022949219	728.9734497070312	-186.8560180664062	403.3812866210938	727.0964965820312	-157.4964904785156	320.2676086425781	1356.694213867188	242.9195709228516	307.7246398925781	1290.015991210938	300.8655700683594	325.4115295410156	1028.467651367188	337.5994873046875	315.3176879882812	1017.487548828125	243.9662475585938	434.0278625488281	816.5121459960938	381.1043395996094	355.507568359375	966.896240234375	357.0037231445312	499.0164184570312	661.5304565429688	330.041015625	507.9766540527344	731.3616333007812	348.6434936523438	448.1177062988281	728.61962890625	380.8088989257812	295.1452941894531	1562.682983398438	171.2538604736328	432.0358276367188	1573.617431640625	25.93364524841309	425.5559997558594	1580.702026367188	148.6020965576172	285.2458190917969	1550.834228515625	9.325374603271484	372.5415649414062	956.533935546875	-103.1163101196289	338.8787231445312	911.5059814453125	254.9151306152344	475.0918884277344	930.588134765625	217.2673492431641	479.9161376953125	953.0625	-44.58162307739258	538.5906372070312	474.7165832519531	-36.51927185058594	494.9396667480469	609.6800537109375	-68.00429534912109	470.4891662597656	38.21943664550781	6.606389999389648	514.4385375976562	236.5628204345703	-23.55173110961914	676.0360717773438	36.98128128051758	103.0815811157227	590.5029907226562	38.0867919921875	119.6349411010742	597.1026000976562	36.20186233520508	13.69057941436768	425.0487365722656	37.14323043823242	55.65046691894531	365.4882202148438	434.34423828125	229.6584930419922	413.4542846679688	685.0415649414062	248.6005706787109	7.831104755401611	174.9295196533203	199.5753326416016	288.5957946777344	332.8047485351562	220.1469116210938	84.75416564941406	34.64762878417969	113.4548721313477	54.8149528503418	100.3270721435547	95.47431182861328	29.97417449951172	90.05891418457031	193.1933135986328	-29.00996398925781	240.8344268798828	149.1977081298828	480.3196716308594	833.2400512695312	326.0565795898438	nan	nan	nan	nan	nan	nan	nan	nan	nan	
